<mxfile host="app.diagrams.net" modified="2020-05-24T11:14:47.505Z" agent="5.0 (Macintosh)" etag="Pg1EyPj-E2CwIu7mIxeV" version="13.1.3" type="github">
  <diagram id="bm23Zu_JIDscOmKop329" name="Page-1">
    <mxGraphModel dx="1186" dy="778" grid="1" gridSize="10" guides="1" tooltips="1" connect="1" arrows="1" fold="1" page="1" pageScale="1" pageWidth="850" pageHeight="1100" math="0" shadow="0">
      <root>
        <mxCell id="0" />
        <mxCell id="1" parent="0" />
        <mxCell id="lqNXPILpCkUBNvHLMyTN-62" value="" style="group" parent="1" vertex="1" connectable="0">
          <mxGeometry x="110" y="80" width="620" height="430" as="geometry" />
        </mxCell>
        <mxCell id="lqNXPILpCkUBNvHLMyTN-21" value="" style="edgeStyle=orthogonalEdgeStyle;curved=1;rounded=0;orthogonalLoop=1;jettySize=auto;html=1;strokeColor=#000000;" parent="lqNXPILpCkUBNvHLMyTN-62" source="lqNXPILpCkUBNvHLMyTN-1" edge="1">
          <mxGeometry relative="1" as="geometry">
            <mxPoint x="125" y="200" as="targetPoint" />
          </mxGeometry>
        </mxCell>
        <mxCell id="lqNXPILpCkUBNvHLMyTN-23" value="" style="edgeStyle=orthogonalEdgeStyle;curved=1;rounded=0;orthogonalLoop=1;jettySize=auto;html=1;strokeColor=#000000;" parent="lqNXPILpCkUBNvHLMyTN-62" source="lqNXPILpCkUBNvHLMyTN-1" edge="1">
          <mxGeometry relative="1" as="geometry">
            <mxPoint x="230" y="150" as="targetPoint" />
            <Array as="points">
              <mxPoint x="200" y="365" />
              <mxPoint x="200" y="150" />
            </Array>
          </mxGeometry>
        </mxCell>
        <mxCell id="lqNXPILpCkUBNvHLMyTN-1" value="" style="shape=image;html=1;verticalAlign=top;verticalLabelPosition=bottom;labelBackgroundColor=#ffffff;imageAspect=0;aspect=fixed;image=https://cdn4.iconfinder.com/data/icons/logos-brands-5/24/netlify-128.png" parent="lqNXPILpCkUBNvHLMyTN-62" vertex="1">
          <mxGeometry x="90" y="330" width="70" height="70" as="geometry" />
        </mxCell>
        <mxCell id="lqNXPILpCkUBNvHLMyTN-2" value="Site" style="text;html=1;strokeColor=none;fillColor=none;align=center;verticalAlign=middle;whiteSpace=wrap;rounded=0;" parent="lqNXPILpCkUBNvHLMyTN-62" vertex="1">
          <mxGeometry x="105" y="410" width="40" height="20" as="geometry" />
        </mxCell>
        <mxCell id="lqNXPILpCkUBNvHLMyTN-19" value="" style="edgeStyle=orthogonalEdgeStyle;curved=1;rounded=0;orthogonalLoop=1;jettySize=auto;html=1;strokeColor=#000000;entryX=0;entryY=0.5;entryDx=0;entryDy=0;" parent="lqNXPILpCkUBNvHLMyTN-62" source="lqNXPILpCkUBNvHLMyTN-3" target="lqNXPILpCkUBNvHLMyTN-1" edge="1">
          <mxGeometry relative="1" as="geometry">
            <mxPoint x="40" y="360" as="targetPoint" />
            <Array as="points">
              <mxPoint y="140" />
              <mxPoint y="365" />
            </Array>
          </mxGeometry>
        </mxCell>
        <mxCell id="lqNXPILpCkUBNvHLMyTN-44" value="" style="edgeStyle=orthogonalEdgeStyle;curved=1;rounded=0;orthogonalLoop=1;jettySize=auto;html=1;strokeColor=#000000;" parent="lqNXPILpCkUBNvHLMyTN-62" source="lqNXPILpCkUBNvHLMyTN-3" edge="1">
          <mxGeometry relative="1" as="geometry">
            <mxPoint x="340" y="20" as="targetPoint" />
            <Array as="points">
              <mxPoint x="125" y="20" />
            </Array>
          </mxGeometry>
        </mxCell>
        <mxCell id="lqNXPILpCkUBNvHLMyTN-3" value="Upload Lambda" style="outlineConnect=0;fontColor=#232F3E;gradientColor=none;strokeColor=#232F3E;fillColor=#ffffff;dashed=0;verticalLabelPosition=bottom;verticalAlign=top;align=center;html=1;fontSize=12;fontStyle=0;aspect=fixed;shape=mxgraph.aws4.resourceIcon;resIcon=mxgraph.aws4.lambda_function;" parent="lqNXPILpCkUBNvHLMyTN-62" vertex="1">
          <mxGeometry x="95" y="110" width="60" height="60" as="geometry" />
        </mxCell>
        <mxCell id="lqNXPILpCkUBNvHLMyTN-10" value="Upload Request" style="text;html=1;strokeColor=none;fillColor=none;align=left;verticalAlign=middle;whiteSpace=wrap;rounded=0;" parent="lqNXPILpCkUBNvHLMyTN-62" vertex="1">
          <mxGeometry x="130" y="250" width="40" height="20" as="geometry" />
        </mxCell>
        <mxCell id="lqNXPILpCkUBNvHLMyTN-11" value="s3 PUT&lt;br&gt;signedUrl" style="text;html=1;strokeColor=none;fillColor=none;align=left;verticalAlign=middle;whiteSpace=wrap;rounded=0;" parent="lqNXPILpCkUBNvHLMyTN-62" vertex="1">
          <mxGeometry x="10" y="240" width="50" height="20" as="geometry" />
        </mxCell>
        <mxCell id="lqNXPILpCkUBNvHLMyTN-28" value="" style="edgeStyle=orthogonalEdgeStyle;curved=1;rounded=0;orthogonalLoop=1;jettySize=auto;html=1;strokeColor=#000000;" parent="lqNXPILpCkUBNvHLMyTN-62" source="lqNXPILpCkUBNvHLMyTN-12" edge="1">
          <mxGeometry relative="1" as="geometry">
            <mxPoint x="330" y="210" as="targetPoint" />
          </mxGeometry>
        </mxCell>
        <mxCell id="lqNXPILpCkUBNvHLMyTN-12" value="" style="outlineConnect=0;fontColor=#232F3E;gradientColor=none;fillColor=#000000;strokeColor=none;dashed=0;verticalLabelPosition=bottom;verticalAlign=top;align=center;html=1;fontSize=12;fontStyle=0;aspect=fixed;pointerEvents=1;shape=mxgraph.aws4.bucket;" parent="lqNXPILpCkUBNvHLMyTN-62" vertex="1">
          <mxGeometry x="236.92000000000002" y="120" width="46.15" height="48" as="geometry" />
        </mxCell>
        <mxCell id="lqNXPILpCkUBNvHLMyTN-13" value="upload s3 bucket" style="text;html=1;strokeColor=none;fillColor=none;align=left;verticalAlign=middle;whiteSpace=wrap;rounded=0;" parent="lqNXPILpCkUBNvHLMyTN-62" vertex="1">
          <mxGeometry x="230" y="180" width="60" height="20" as="geometry" />
        </mxCell>
        <mxCell id="lqNXPILpCkUBNvHLMyTN-25" value="File upload" style="text;html=1;strokeColor=none;fillColor=none;align=left;verticalAlign=middle;whiteSpace=wrap;rounded=0;" parent="lqNXPILpCkUBNvHLMyTN-62" vertex="1">
          <mxGeometry x="210" y="260" width="40" height="20" as="geometry" />
        </mxCell>
        <mxCell id="lqNXPILpCkUBNvHLMyTN-26" value="Resize Lambda" style="outlineConnect=0;fontColor=#232F3E;gradientColor=none;strokeColor=#232F3E;fillColor=#ffffff;dashed=0;verticalLabelPosition=bottom;verticalAlign=top;align=center;html=1;fontSize=12;fontStyle=0;aspect=fixed;shape=mxgraph.aws4.resourceIcon;resIcon=mxgraph.aws4.lambda_function;" parent="lqNXPILpCkUBNvHLMyTN-62" vertex="1">
          <mxGeometry x="310" y="210" width="60" height="60" as="geometry" />
        </mxCell>
        <mxCell id="lqNXPILpCkUBNvHLMyTN-29" value="" style="edgeStyle=orthogonalEdgeStyle;curved=1;rounded=0;orthogonalLoop=1;jettySize=auto;html=1;strokeColor=#000000;" parent="lqNXPILpCkUBNvHLMyTN-62" source="lqNXPILpCkUBNvHLMyTN-26" edge="1">
          <mxGeometry relative="1" as="geometry">
            <mxPoint x="420" y="150" as="targetPoint" />
            <mxPoint x="360" y="200" as="sourcePoint" />
            <Array as="points">
              <mxPoint x="350" y="150" />
            </Array>
          </mxGeometry>
        </mxCell>
        <mxCell id="lqNXPILpCkUBNvHLMyTN-47" value="" style="edgeStyle=orthogonalEdgeStyle;curved=1;rounded=0;orthogonalLoop=1;jettySize=auto;html=1;strokeColor=#000000;" parent="lqNXPILpCkUBNvHLMyTN-62" source="lqNXPILpCkUBNvHLMyTN-30" edge="1">
          <mxGeometry relative="1" as="geometry">
            <mxPoint x="580" y="190" as="targetPoint" />
          </mxGeometry>
        </mxCell>
        <mxCell id="lqNXPILpCkUBNvHLMyTN-30" value="" style="outlineConnect=0;fontColor=#232F3E;gradientColor=none;fillColor=#000000;strokeColor=none;dashed=0;verticalLabelPosition=bottom;verticalAlign=top;align=center;html=1;fontSize=12;fontStyle=0;aspect=fixed;pointerEvents=1;shape=mxgraph.aws4.bucket;" parent="lqNXPILpCkUBNvHLMyTN-62" vertex="1">
          <mxGeometry x="430" y="120" width="46.15" height="48" as="geometry" />
        </mxCell>
        <mxCell id="lqNXPILpCkUBNvHLMyTN-32" value="&lt;div&gt;public s3 bucket&lt;/div&gt;" style="text;html=1;strokeColor=none;fillColor=none;align=left;verticalAlign=middle;whiteSpace=wrap;rounded=0;" parent="lqNXPILpCkUBNvHLMyTN-62" vertex="1">
          <mxGeometry x="423.08000000000004" y="180" width="60" height="20" as="geometry" />
        </mxCell>
        <mxCell id="lqNXPILpCkUBNvHLMyTN-50" value="" style="edgeStyle=orthogonalEdgeStyle;curved=1;rounded=0;orthogonalLoop=1;jettySize=auto;html=1;strokeColor=#000000;" parent="lqNXPILpCkUBNvHLMyTN-62" source="lqNXPILpCkUBNvHLMyTN-33" edge="1">
          <mxGeometry relative="1" as="geometry">
            <mxPoint x="600" y="190" as="targetPoint" />
          </mxGeometry>
        </mxCell>
        <mxCell id="lqNXPILpCkUBNvHLMyTN-33" value="" style="html=1;verticalLabelPosition=bottom;align=center;labelBackgroundColor=#ffffff;verticalAlign=top;strokeWidth=2;strokeColor=#000000;shadow=0;dashed=0;shape=mxgraph.ios7.icons.data;fillColor=none;" parent="lqNXPILpCkUBNvHLMyTN-62" vertex="1">
          <mxGeometry x="350" width="39" height="50" as="geometry" />
        </mxCell>
        <mxCell id="lqNXPILpCkUBNvHLMyTN-38" value="&lt;div&gt;dynamoDb&lt;/div&gt;&lt;div&gt;caption table&lt;br&gt;&lt;/div&gt;" style="text;html=1;strokeColor=none;fillColor=none;align=left;verticalAlign=middle;whiteSpace=wrap;rounded=0;" parent="lqNXPILpCkUBNvHLMyTN-62" vertex="1">
          <mxGeometry x="329.75" y="60" width="79.5" height="20" as="geometry" />
        </mxCell>
        <mxCell id="lqNXPILpCkUBNvHLMyTN-54" value="" style="edgeStyle=orthogonalEdgeStyle;curved=1;rounded=0;orthogonalLoop=1;jettySize=auto;html=1;strokeColor=#000000;entryX=1;entryY=0.5;entryDx=0;entryDy=0;" parent="lqNXPILpCkUBNvHLMyTN-62" target="lqNXPILpCkUBNvHLMyTN-52" edge="1">
          <mxGeometry relative="1" as="geometry">
            <mxPoint x="590" y="290" as="sourcePoint" />
            <mxPoint x="590" y="340" as="targetPoint" />
            <Array as="points">
              <mxPoint x="590" y="363" />
            </Array>
          </mxGeometry>
        </mxCell>
        <mxCell id="lqNXPILpCkUBNvHLMyTN-39" value="Associate Lambda" style="outlineConnect=0;fontColor=#232F3E;gradientColor=none;strokeColor=#232F3E;fillColor=#ffffff;dashed=0;verticalLabelPosition=bottom;verticalAlign=top;align=center;html=1;fontSize=12;fontStyle=0;aspect=fixed;shape=mxgraph.aws4.resourceIcon;resIcon=mxgraph.aws4.lambda_function;" parent="lqNXPILpCkUBNvHLMyTN-62" vertex="1">
          <mxGeometry x="560" y="200" width="60" height="60" as="geometry" />
        </mxCell>
        <mxCell id="lqNXPILpCkUBNvHLMyTN-40" value="creation event" style="text;html=1;strokeColor=none;fillColor=none;align=left;verticalAlign=middle;whiteSpace=wrap;rounded=0;" parent="lqNXPILpCkUBNvHLMyTN-62" vertex="1">
          <mxGeometry x="310" y="130" width="40" height="20" as="geometry" />
        </mxCell>
        <mxCell id="lqNXPILpCkUBNvHLMyTN-42" value="resized item" style="text;html=1;strokeColor=none;fillColor=none;align=left;verticalAlign=middle;whiteSpace=wrap;rounded=0;" parent="lqNXPILpCkUBNvHLMyTN-62" vertex="1">
          <mxGeometry x="360" y="180" width="40" height="20" as="geometry" />
        </mxCell>
        <mxCell id="lqNXPILpCkUBNvHLMyTN-45" value="browser id &amp;amp; caption" style="text;html=1;strokeColor=none;fillColor=none;align=left;verticalAlign=middle;whiteSpace=wrap;rounded=0;" parent="lqNXPILpCkUBNvHLMyTN-62" vertex="1">
          <mxGeometry x="160" y="10" width="70" height="20" as="geometry" />
        </mxCell>
        <mxCell id="lqNXPILpCkUBNvHLMyTN-48" value="creation event" style="text;html=1;strokeColor=none;fillColor=none;align=left;verticalAlign=middle;whiteSpace=wrap;rounded=0;" parent="lqNXPILpCkUBNvHLMyTN-62" vertex="1">
          <mxGeometry x="510" y="120" width="40" height="20" as="geometry" />
        </mxCell>
        <mxCell id="lqNXPILpCkUBNvHLMyTN-51" value="retrieve. data" style="text;html=1;strokeColor=none;fillColor=none;align=left;verticalAlign=middle;whiteSpace=wrap;rounded=0;" parent="lqNXPILpCkUBNvHLMyTN-62" vertex="1">
          <mxGeometry x="520" y="20" width="40" height="20" as="geometry" />
        </mxCell>
        <mxCell id="lqNXPILpCkUBNvHLMyTN-56" value="" style="edgeStyle=orthogonalEdgeStyle;curved=1;rounded=0;orthogonalLoop=1;jettySize=auto;html=1;strokeColor=#000000;" parent="lqNXPILpCkUBNvHLMyTN-62" source="lqNXPILpCkUBNvHLMyTN-52" edge="1">
          <mxGeometry relative="1" as="geometry">
            <mxPoint x="200" y="363" as="targetPoint" />
          </mxGeometry>
        </mxCell>
        <mxCell id="lqNXPILpCkUBNvHLMyTN-52" value="" style="shape=image;html=1;verticalAlign=top;verticalLabelPosition=bottom;labelBackgroundColor=#ffffff;imageAspect=0;aspect=fixed;image=https://cdn4.iconfinder.com/data/icons/logos-brands-5/24/firebase-128.png;strokeColor=#000000;fillColor=none;align=left;" parent="lqNXPILpCkUBNvHLMyTN-62" vertex="1">
          <mxGeometry x="450" y="336" width="54" height="54" as="geometry" />
        </mxCell>
        <mxCell id="lqNXPILpCkUBNvHLMyTN-59" value="Firebase" style="text;html=1;strokeColor=none;fillColor=none;align=center;verticalAlign=middle;whiteSpace=wrap;rounded=0;" parent="lqNXPILpCkUBNvHLMyTN-62" vertex="1">
          <mxGeometry x="457" y="400" width="40" height="20" as="geometry" />
        </mxCell>
      </root>
    </mxGraphModel>
  </diagram>
</mxfile>
